<?xml version="1.0" standalone="no"?>
<!DOCTYPE svg PUBLIC "-//W3C//DTD SVG 20010904//EN"
  "http://www.w3.org/TR/2001/REC-SVG-20010904/DTD/svg10.dtd">
<svg version="1.0" xmlns="http://www.w3.org/2000/svg"
     width="505.000000pt" height="505.000000pt" viewBox="0 0 505.000000 505.000000"
     preserveAspectRatio="xMidYMid meet">
  <metadata>
    Created by potrace 1.11, written by Peter Selinger 2001-2013
  </metadata>
  <g transform="translate(0.000000,505.000000) scale(0.100000,-0.100000)"
     fill="#000000" stroke="none">
    <path d="M4196 3253 c-3 -10 -10 -45 -15 -78 -17 -97 -29 -164 -45 -250 -2
-11 -7 -40 -11 -65 -4 -25 -9 -54 -11 -65 -4 -21 -21 -117 -30 -170 -3 -16
-23 -129 -44 -250 -22 -121 -42 -236 -45 -255 -3 -19 -13 -73 -21 -120 -9 -47
-18 -98 -21 -115 -2 -16 -6 -36 -8 -43 -4 -10 36 -12 187 -10 l192 3 13 75 c7
41 15 93 18 115 11 69 22 126 26 129 2 1 18 12 34 23 l30 21 27 -67 c14 -36
38 -97 53 -136 14 -38 30 -79 34 -90 5 -11 13 -32 20 -47 l11 -28 200 0 c110
0 200 2 200 5 0 4 -176 405 -221 502 -10 24 -19 47 -19 52 0 8 185 136 299
208 6 4 -20 63 -28 63 -3 0 -35 45 -71 100 -36 54 -68 99 -71 100 -3 0 -99
-69 -215 -154 -115 -85 -210 -153 -211 -152 -3 2 1 24 22 141 3 17 12 71 20
120 8 50 17 99 19 110 2 11 16 90 31 175 14 85 29 158 31 162 3 4 -80 8 -185
8 -172 0 -190 -2 -195 -17z"/>
    <path d="M257 3233 c-3 -5 -8 -23 -11 -39 -3 -16 -10 -54 -16 -84 -6 -30 -12
-65 -14 -77 -3 -11 -8 -43 -12 -70 -3 -26 -8 -57 -11 -68 -5 -25 -70 -387 -78
-435 -5 -34 -39 -222 -88 -498 l-23 -134 350 4 c338 4 354 6 446 30 139 38
223 79 286 143 53 52 100 137 110 195 3 14 8 34 11 45 3 11 5 47 4 80 -2 74
-34 147 -90 208 l-40 44 36 39 c79 86 113 162 118 269 5 87 -19 162 -65 210
-52 54 -181 114 -280 131 -61 10 -627 16 -633 7z m523 -316 c37 -18 47 -29 54
-59 22 -90 -58 -148 -209 -153 -57 -1 -85 1 -85 9 0 15 30 187 36 209 8 27
144 24 204 -6z m-24 -534 c44 -23 64 -53 64 -101 0 -65 -44 -116 -122 -141
-50 -17 -249 -20 -255 -5 -4 11 34 251 42 265 3 3 56 6 118 5 92 -2 121 -6
153 -23z"/>
    <path d="M1311 3216 c-6 -8 -10 -27 -7 -42 3 -16 7 -74 11 -129 3 -55 8 -122
10 -150 3 -27 7 -79 10 -115 2 -36 7 -94 10 -130 3 -36 8 -100 11 -143 7 -116
12 -124 74 -122 28 1 53 -2 55 -5 2 -4 6 -37 10 -74 3 -37 7 -81 10 -99 2 -18
7 -63 10 -102 3 -38 8 -81 10 -95 2 -14 6 -59 10 -100 8 -106 10 -113 28 -124
12 -8 20 -7 30 4 8 8 96 208 197 444 160 374 181 430 168 440 -9 7 -55 11
-112 11 -59 0 -96 4 -96 10 0 6 50 122 111 258 88 198 108 252 98 263 -17 21
-631 21 -648 0z"/>
    <path d="M2521 2859 c-114 -20 -264 -103 -353 -196 -128 -133 -197 -381 -158
-568 35 -171 222 -285 468 -287 156 -2 352 41 412 90 l22 17 -27 105 c-15 58
-27 113 -28 123 -2 21 5 21 -80 -5 -74 -22 -233 -31 -288 -16 -30 9 -75 51
-82 77 -4 17 11 18 295 17 257 -1 301 1 308 14 14 28 34 169 33 240 -1 176
-86 320 -218 369 -68 26 -218 36 -304 20z m121 -305 c20 -6 48 -59 48 -92 0
-16 -11 -18 -122 -17 -135 0 -144 5 -106 55 42 57 108 77 180 54z"/>
    <path d="M3495 2855 c-211 -42 -343 -172 -361 -355 -5 -47 24 -124 58 -157 42
-39 127 -92 198 -122 110 -47 119 -53 120 -73 0 -16 -57 -35 -96 -32 -43 3
-177 48 -209 70 -11 8 -25 14 -31 14 -6 0 -33 -37 -60 -82 -78 -134 -95 -168
-89 -179 13 -21 87 -60 157 -83 108 -36 220 -53 307 -45 192 18 304 86 373
227 28 57 32 76 33 147 0 70 -3 86 -25 119 -32 48 -135 116 -245 163 -92 39
-110 57 -80 79 40 30 146 14 247 -36 l57 -28 75 126 75 127 -35 31 c-40 37
-118 68 -222 89 -82 17 -158 17 -247 0z"/>
  </g>
</svg>
